<svg xmlns="http://www.w3.org/2000/svg" viewBox="0 0 800 520" fill="none">
  <style>
    text { font-family: 'JetBrains Mono', ui-monospace, SFMono-Regular, Menlo, Monaco, Consolas, monospace; }
    .box { fill: #1a1a1a; stroke: #2a2a2a; stroke-width: 1.5; }
    .box-online { fill: #1a1a1a; stroke: #555555; stroke-width: 1.5; }
    .label { fill: #e8e8e8; font-size: 13px; font-weight: 600; }
    .sublabel { fill: #888888; font-size: 10px; }
    .arrow { stroke: #555555; stroke-width: 1.5; fill: none; marker-end: url(#arrowhead); }
    .arrow-down { stroke: #555555; stroke-width: 1.5; fill: none; marker-end: url(#arrowhead); }
    .divider { stroke: #555555; stroke-width: 1; stroke-dasharray: 6 4; }
    .divider-label { fill: #555555; font-size: 11px; font-weight: 500; letter-spacing: 0.1em; }
    .zone-label { fill: #888888; font-size: 10px; font-weight: 600; letter-spacing: 0.15em; text-transform: uppercase; }
  </style>

  <defs>
    <marker id="arrowhead" markerWidth="8" markerHeight="6" refX="7" refY="3" orient="auto">
      <polygon points="0 0, 8 3, 0 6" fill="#555555"/>
    </marker>
  </defs>

  <!-- ONLINE ZONE label -->
  <text x="40" y="58" class="zone-label">ONLINE</text>

  <!-- Gmail API box -->
  <rect x="40" y="72" width="160" height="50" class="box-online" rx="0"/>
  <text x="120" y="102" text-anchor="middle" class="label">Gmail API</text>

  <!-- Arrow: Gmail -> Sync -->
  <line x1="200" y1="97" x2="268" y2="97" class="arrow"/>

  <!-- Sync box -->
  <rect x="270" y="72" width="220" height="50" class="box-online" rx="0"/>
  <text x="380" y="95" text-anchor="middle" class="label">sync-full</text>
  <text x="380" y="112" text-anchor="middle" class="sublabel">sync-incremental</text>

  <!-- Arrow: Sync -> SQLite -->
  <line x1="490" y1="97" x2="558" y2="97" class="arrow"/>

  <!-- SQLite box -->
  <rect x="560" y="68" width="200" height="58" class="box-online" rx="0"/>
  <text x="660" y="95" text-anchor="middle" class="label">SQLite</text>
  <text x="660" y="112" text-anchor="middle" class="sublabel">system of record</text>

  <!-- Offline divider -->
  <line x1="20" y1="160" x2="780" y2="160" class="divider"/>
  <rect x="310" y="149" width="180" height="22" fill="#0a0a0a"/>
  <text x="400" y="165" text-anchor="middle" class="divider-label">OFFLINE BOUNDARY</text>

  <!-- OFFLINE ZONE label -->
  <text x="40" y="206" class="zone-label">OFFLINE</text>

  <!-- Attachments box -->
  <rect x="40" y="220" width="200" height="58" class="box" rx="0"/>
  <text x="140" y="247" text-anchor="middle" class="label">Attachments</text>
  <text x="140" y="264" text-anchor="middle" class="sublabel">content-addressed files</text>

  <!-- Arrow: SQLite down to Parquet -->
  <line x1="660" y1="126" x2="660" y2="218" class="arrow-down"/>

  <!-- Parquet box -->
  <rect x="560" y="220" width="200" height="58" class="box" rx="0"/>
  <text x="660" y="247" text-anchor="middle" class="label">Parquet Cache</text>
  <text x="660" y="264" text-anchor="middle" class="sublabel">DuckDB analytics</text>

  <!-- Arrow: SQLite down-left to Attachments -->
  <path d="M 610 126 L 610 185 L 240 185 L 240 218" class="arrow-down"/>

  <!-- Arrow: SQLite down to FTS5 -->
  <path d="M 660 126 L 660 160 L 400 160 L 400 218" class="arrow-down"/>

  <!-- FTS5 Search box -->
  <rect x="300" y="220" width="200" height="58" class="box" rx="0"/>
  <text x="400" y="247" text-anchor="middle" class="label">FTS5 Search</text>
  <text x="400" y="264" text-anchor="middle" class="sublabel">full-text index</text>

  <!-- Arrow: Parquet down to TUI -->
  <line x1="660" y1="278" x2="660" y2="338" class="arrow-down"/>

  <!-- Arrow: FTS5 down-right to TUI -->
  <path d="M 460 278 L 460 310 L 610 310 L 610 338" class="arrow-down"/>

  <!-- Arrow: FTS5 down to Search CLI -->
  <line x1="400" y1="278" x2="400" y2="338" class="arrow-down"/>

  <!-- TUI box -->
  <rect x="560" y="340" width="200" height="58" class="box" rx="0"/>
  <text x="660" y="367" text-anchor="middle" class="label">Interactive TUI</text>
  <text x="660" y="384" text-anchor="middle" class="sublabel">DuckDB + FTS5</text>

  <!-- Search / LLM Chat box -->
  <rect x="300" y="340" width="200" height="58" class="box" rx="0"/>
  <text x="400" y="367" text-anchor="middle" class="label">Search / LLM Chat</text>
  <text x="400" y="384" text-anchor="middle" class="sublabel">SQLite FTS5 + RAG</text>

  <!-- Arrow: Search down to MCP -->
  <path d="M 400 398 L 400 430 L 530 430 L 530 458" class="arrow-down"/>

  <!-- Arrow: TUI down to MCP -->
  <path d="M 660 398 L 660 430 L 530 430 L 530 458" class="arrow-down"/>

  <!-- MCP Server box -->
  <rect x="430" y="460" width="200" height="50" class="box" rx="0"/>
  <text x="530" y="489" text-anchor="middle" class="label">MCP Server</text>
  <text x="530" y="504" text-anchor="middle" class="sublabel">Claude Desktop</text>

</svg>
