<svg xmlns="http://www.w3.org/2000/svg" viewBox="0 0 1200 630" fill="none">
  <style>
    text { font-family: 'JetBrains Mono', ui-monospace, SFMono-Regular, Menlo, Monaco, Consolas, monospace; }
  </style>

  <!-- Background -->
  <rect width="1200" height="630" fill="#0a0a0a"/>

  <!-- Subtle border -->
  <rect x="20" y="20" width="1160" height="590" fill="none" stroke="#1a1a1a" stroke-width="1"/>

  <!-- Corner accents -->
  <line x1="20" y1="20" x2="60" y2="20" stroke="#555555" stroke-width="2"/>
  <line x1="20" y1="20" x2="20" y2="60" stroke="#555555" stroke-width="2"/>
  <line x1="1140" y1="20" x2="1180" y2="20" stroke="#555555" stroke-width="2"/>
  <line x1="1180" y1="20" x2="1180" y2="60" stroke="#555555" stroke-width="2"/>
  <line x1="20" y1="570" x2="20" y2="610" stroke="#555555" stroke-width="2"/>
  <line x1="20" y1="610" x2="60" y2="610" stroke="#555555" stroke-width="2"/>
  <line x1="1180" y1="570" x2="1180" y2="610" stroke="#555555" stroke-width="2"/>
  <line x1="1140" y1="610" x2="1180" y2="610" stroke="#555555" stroke-width="2"/>

  <!-- Vault icon (left side) -->
  <g transform="translate(160, 190)">
    <rect x="0" y="0" width="120" height="120" fill="none" stroke="#e8e8e8" stroke-width="3"/>
    <rect x="10" y="10" width="100" height="100" fill="none" stroke="#2a2a2a" stroke-width="1.5"/>
    <circle cx="60" cy="60" r="32" fill="none" stroke="#e8e8e8" stroke-width="2"/>
    <line x1="60" y1="32" x2="60" y2="88" stroke="#555555" stroke-width="2"/>
    <line x1="32" y1="60" x2="88" y2="60" stroke="#555555" stroke-width="2"/>
    <!-- Corner bolts -->
    <rect x="14" y="14" width="6" height="6" fill="#555555"/>
    <rect x="100" y="14" width="6" height="6" fill="#555555"/>
    <rect x="14" y="100" width="6" height="6" fill="#555555"/>
    <rect x="100" y="100" width="6" height="6" fill="#555555"/>
    <!-- Center -->
    <circle cx="60" cy="60" r="4" fill="#e8e8e8"/>
  </g>

  <!-- Title -->
  <text x="340" y="245" fill="#ffffff" font-size="72" font-weight="700" letter-spacing="-0.03em">msgvault</text>

  <!-- Tagline -->
  <text x="340" y="295" fill="#888888" font-size="24" font-weight="400">Your email archive. Offline. Secure. Fast.</text>

  <!-- Feature pills -->
  <g transform="translate(340, 330)">
    <rect x="0" y="0" width="140" height="32" fill="#1a1a1a" stroke="#2a2a2a" stroke-width="1"/>
    <text x="70" y="21" text-anchor="middle" fill="#c0c0c0" font-size="13" font-weight="500">SQLite + FTS5</text>

    <rect x="155" y="0" width="170" height="32" fill="#1a1a1a" stroke="#2a2a2a" stroke-width="1"/>
    <text x="240" y="21" text-anchor="middle" fill="#c0c0c0" font-size="13" font-weight="500">DuckDB + Parquet</text>

    <rect x="340" y="0" width="120" height="32" fill="#1a1a1a" stroke="#2a2a2a" stroke-width="1"/>
    <text x="400" y="21" text-anchor="middle" fill="#c0c0c0" font-size="13" font-weight="500">LLM Chat</text>

    <rect x="475" y="0" width="140" height="32" fill="#1a1a1a" stroke="#2a2a2a" stroke-width="1"/>
    <text x="545" y="21" text-anchor="middle" fill="#c0c0c0" font-size="13" font-weight="500">MCP Server</text>
  </g>

  <!-- Bottom URL -->
  <text x="600" y="560" text-anchor="middle" fill="#555555" font-size="18" font-weight="400">msgvault.io</text>
</svg>
