<?xml version="1.0" encoding="UTF-8"?>
<!DOCTYPE svg PUBLIC "-//W3C//DTD SVG 1.0//EN" "http://www.w3.org/TR/2001/REC-SVG-20010904/DTD/svg10.dtd">
<svg width="351.67" height="708.00" xmlns="http://www.w3.org/2000/svg">
<rect width="351.67" height="708.00" fill="#1a1b26" x="0.00px" y="0.00px"/>
<g font-family="SF Mono, Menlo, Consolas, Liberation Mono, monospace" font-size="14.00px" fill="#c4c4c4" clip-path="url(#terminalMask)">
<text x="5.00px" y="21.80px" xml:space="preserve"><tspan xml:space="preserve">root@7e70073c6bb2:/tapes# msgvault stats</tspan></text><text x="5.00px" y="38.60px" xml:space="preserve"><tspan xml:space="preserve">Database: /data/msgvault.db</tspan></text><text x="5.00px" y="55.40px" xml:space="preserve"><tspan xml:space="preserve">  Messages:    10010</tspan></text><text x="5.00px" y="72.20px" xml:space="preserve"><tspan xml:space="preserve">  Threads:     7007</tspan></text><text x="5.00px" y="89.00px" xml:space="preserve"><tspan xml:space="preserve">  Attachments: 1037</tspan></text><text x="5.00px" y="105.80px" xml:space="preserve"><tspan xml:space="preserve">  Labels:      32</tspan></text><text x="5.00px" y="122.60px" xml:space="preserve"><tspan xml:space="preserve">  Sources:     2</tspan></text><text x="5.00px" y="139.40px" xml:space="preserve"><tspan xml:space="preserve">  Size:        12.86 MB</tspan></text><text x="5.00px" y="156.20px" xml:space="preserve"><tspan xml:space="preserve">root@7e70073c6bb2:/tapes#</tspan></text><text x="5.00px" y="173.00px" xml:space="preserve"/><text x="5.00px" y="189.80px" xml:space="preserve"/><text x="5.00px" y="206.60px" xml:space="preserve"/><text x="5.00px" y="223.40px" xml:space="preserve"/><text x="5.00px" y="240.20px" xml:space="preserve"/><text x="5.00px" y="257.00px" xml:space="preserve"/><text x="5.00px" y="273.80px" xml:space="preserve"/><text x="5.00px" y="290.60px" xml:space="preserve"/><text x="5.00px" y="307.40px" xml:space="preserve"/><text x="5.00px" y="324.20px" xml:space="preserve"/><text x="5.00px" y="341.00px" xml:space="preserve"/><text x="5.00px" y="357.80px" xml:space="preserve"/><text x="5.00px" y="374.60px" xml:space="preserve"/><text x="5.00px" y="391.40px" xml:space="preserve"/><text x="5.00px" y="408.20px" xml:space="preserve"/><text x="5.00px" y="425.00px" xml:space="preserve"/><text x="5.00px" y="441.80px" xml:space="preserve"/><text x="5.00px" y="458.60px" xml:space="preserve"/><text x="5.00px" y="475.40px" xml:space="preserve"/><text x="5.00px" y="492.20px" xml:space="preserve"/><text x="5.00px" y="509.00px" xml:space="preserve"/><text x="5.00px" y="525.80px" xml:space="preserve"/><text x="5.00px" y="542.60px" xml:space="preserve"/><text x="5.00px" y="559.40px" xml:space="preserve"/><text x="5.00px" y="576.20px" xml:space="preserve"/><text x="5.00px" y="593.00px" xml:space="preserve"/><text x="5.00px" y="609.80px" xml:space="preserve"/><text x="5.00px" y="626.60px" xml:space="preserve"/><text x="5.00px" y="643.40px" xml:space="preserve"/><text x="5.00px" y="660.20px" xml:space="preserve"/><text x="5.00px" y="677.00px" xml:space="preserve"/>
</g>
</svg>
