<?xml version="1.0" encoding="UTF-8"?>
<!DOCTYPE svg PUBLIC "-//W3C//DTD SVG 1.0//EN" "http://www.w3.org/TR/2001/REC-SVG-20010904/DTD/svg10.dtd">
<svg width="421.67" height="738.00" xmlns="http://www.w3.org/2000/svg">
<rect width="421.67" height="738.00" fill="#1a1b26" x="0.00px" y="0.00px"/>
<g font-family="MesloLGS NF" font-size="14.00px" fill="#c4c4c4" clip-path="url(#terminalMask)">
<text x="40.00px" y="36.80px" xml:space="preserve"><tspan xml:space="preserve">root@9232b3fab352:/tapes# msgvault stats</tspan></text><text x="40.00px" y="53.60px" xml:space="preserve"><tspan xml:space="preserve">Database: /data/msgvault.db</tspan></text><text x="40.00px" y="70.40px" xml:space="preserve"><tspan xml:space="preserve">  Messages:    10000</tspan></text><text x="40.00px" y="87.20px" xml:space="preserve"><tspan xml:space="preserve">  Threads:     7006</tspan></text><text x="40.00px" y="104.00px" xml:space="preserve"><tspan xml:space="preserve">  Attachments: 1037</tspan></text><text x="40.00px" y="120.80px" xml:space="preserve"><tspan xml:space="preserve">  Labels:      32</tspan></text><text x="40.00px" y="137.60px" xml:space="preserve"><tspan xml:space="preserve">  Sources:     2</tspan></text><text x="40.00px" y="154.40px" xml:space="preserve"><tspan xml:space="preserve">  Size:        12.86 MB</tspan></text><text x="40.00px" y="171.20px" xml:space="preserve"><tspan xml:space="preserve">root@9232b3fab352:/tapes#</tspan></text><text x="40.00px" y="188.00px" xml:space="preserve"/><text x="40.00px" y="204.80px" xml:space="preserve"/><text x="40.00px" y="221.60px" xml:space="preserve"/><text x="40.00px" y="238.40px" xml:space="preserve"/><text x="40.00px" y="255.20px" xml:space="preserve"/><text x="40.00px" y="272.00px" xml:space="preserve"/><text x="40.00px" y="288.80px" xml:space="preserve"/><text x="40.00px" y="305.60px" xml:space="preserve"/><text x="40.00px" y="322.40px" xml:space="preserve"/><text x="40.00px" y="339.20px" xml:space="preserve"/><text x="40.00px" y="356.00px" xml:space="preserve"/><text x="40.00px" y="372.80px" xml:space="preserve"/><text x="40.00px" y="389.60px" xml:space="preserve"/><text x="40.00px" y="406.40px" xml:space="preserve"/><text x="40.00px" y="423.20px" xml:space="preserve"/><text x="40.00px" y="440.00px" xml:space="preserve"/><text x="40.00px" y="456.80px" xml:space="preserve"/><text x="40.00px" y="473.60px" xml:space="preserve"/><text x="40.00px" y="490.40px" xml:space="preserve"/><text x="40.00px" y="507.20px" xml:space="preserve"/><text x="40.00px" y="524.00px" xml:space="preserve"/><text x="40.00px" y="540.80px" xml:space="preserve"/><text x="40.00px" y="557.60px" xml:space="preserve"/><text x="40.00px" y="574.40px" xml:space="preserve"/><text x="40.00px" y="591.20px" xml:space="preserve"/><text x="40.00px" y="608.00px" xml:space="preserve"/><text x="40.00px" y="624.80px" xml:space="preserve"/><text x="40.00px" y="641.60px" xml:space="preserve"/><text x="40.00px" y="658.40px" xml:space="preserve"/><text x="40.00px" y="675.20px" xml:space="preserve"/><text x="40.00px" y="692.00px" xml:space="preserve"/>
</g>
</svg>
