<?xml version="1.0" encoding="UTF-8"?>
<!DOCTYPE svg PUBLIC "-//W3C//DTD SVG 1.0//EN" "http://www.w3.org/TR/2001/REC-SVG-20010904/DTD/svg10.dtd">
<svg width="341.67" height="698.00" xmlns="http://www.w3.org/2000/svg">
<rect width="341.67" height="698.00" fill="#1a1b26" x="0.00px" y="0.00px"/>
<g font-family="SF Mono, Menlo, Consolas, Liberation Mono, monospace" font-size="14.00px" fill="#c4c4c4" clip-path="url(#terminalMask)">
<text x="0.00px" y="16.80px" xml:space="preserve"><tspan xml:space="preserve">root@2ab62d5dd9e8:/tapes# msgvault stats</tspan></text><text x="0.00px" y="33.60px" xml:space="preserve"><tspan xml:space="preserve">Database: /data/msgvault.db</tspan></text><text x="0.00px" y="50.40px" xml:space="preserve"><tspan xml:space="preserve">  Messages:    10010</tspan></text><text x="0.00px" y="67.20px" xml:space="preserve"><tspan xml:space="preserve">  Threads:     7007</tspan></text><text x="0.00px" y="84.00px" xml:space="preserve"><tspan xml:space="preserve">  Attachments: 1037</tspan></text><text x="0.00px" y="100.80px" xml:space="preserve"><tspan xml:space="preserve">  Labels:      32</tspan></text><text x="0.00px" y="117.60px" xml:space="preserve"><tspan xml:space="preserve">  Sources:     2</tspan></text><text x="0.00px" y="134.40px" xml:space="preserve"><tspan xml:space="preserve">  Size:        12.86 MB</tspan></text><text x="0.00px" y="151.20px" xml:space="preserve"><tspan xml:space="preserve">root@2ab62d5dd9e8:/tapes#</tspan></text><text x="0.00px" y="168.00px" xml:space="preserve"/><text x="0.00px" y="184.80px" xml:space="preserve"/><text x="0.00px" y="201.60px" xml:space="preserve"/><text x="0.00px" y="218.40px" xml:space="preserve"/><text x="0.00px" y="235.20px" xml:space="preserve"/><text x="0.00px" y="252.00px" xml:space="preserve"/><text x="0.00px" y="268.80px" xml:space="preserve"/><text x="0.00px" y="285.60px" xml:space="preserve"/><text x="0.00px" y="302.40px" xml:space="preserve"/><text x="0.00px" y="319.20px" xml:space="preserve"/><text x="0.00px" y="336.00px" xml:space="preserve"/><text x="0.00px" y="352.80px" xml:space="preserve"/><text x="0.00px" y="369.60px" xml:space="preserve"/><text x="0.00px" y="386.40px" xml:space="preserve"/><text x="0.00px" y="403.20px" xml:space="preserve"/><text x="0.00px" y="420.00px" xml:space="preserve"/><text x="0.00px" y="436.80px" xml:space="preserve"/><text x="0.00px" y="453.60px" xml:space="preserve"/><text x="0.00px" y="470.40px" xml:space="preserve"/><text x="0.00px" y="487.20px" xml:space="preserve"/><text x="0.00px" y="504.00px" xml:space="preserve"/><text x="0.00px" y="520.80px" xml:space="preserve"/><text x="0.00px" y="537.60px" xml:space="preserve"/><text x="0.00px" y="554.40px" xml:space="preserve"/><text x="0.00px" y="571.20px" xml:space="preserve"/><text x="0.00px" y="588.00px" xml:space="preserve"/><text x="0.00px" y="604.80px" xml:space="preserve"/><text x="0.00px" y="621.60px" xml:space="preserve"/><text x="0.00px" y="638.40px" xml:space="preserve"/><text x="0.00px" y="655.20px" xml:space="preserve"/><text x="0.00px" y="672.00px" xml:space="preserve"/>
</g>
</svg>
