<?xml version="1.0" encoding="UTF-8"?>
<!DOCTYPE svg PUBLIC "-//W3C//DTD SVG 1.0//EN" "http://www.w3.org/TR/2001/REC-SVG-20010904/DTD/svg10.dtd">
<svg width="1088.33" height="738.00" xmlns="http://www.w3.org/2000/svg">
<rect width="1088.33" height="738.00" fill="#1a1b26" x="0.00px" y="0.00px"/>
<g font-family="SF Mono, Menlo, Consolas, Liberation Mono, monospace" font-size="14.00px" fill="#c4c4c4" clip-path="url(#terminalMask)"><rect fill="#000000" x="1031.67px" y="678.24px" height="17.80px" width="0.00000px"/><rect fill="#000000" x="1031.67px" y="661.44px" height="17.80px" width="0.00000px"/><rect fill="#000000" x="65.00px" y="123.84px" height="17.80px" width="787.50000px"/><rect fill="#080808" x="65.00px" y="107.04px" height="17.80px" width="787.50000px"/><rect fill="#080808" x="40.00px" y="90.24px" height="17.80px" width="812.50000px"/><rect fill="#000000" x="40.00px" y="73.44px" height="17.80px" width="1004.16667px"/><rect fill="#000000" x="1031.67px" y="39.84px" height="17.80px" width="0.00000px"/><rect fill="#000000" x="740.00px" y="39.84px" height="17.80px" width="295.83333px"/><rect fill="#000000" x="156.67px" y="39.84px" height="17.80px" width="587.50000px"/><rect fill="#000000" x="40.00px" y="39.84px" height="17.80px" width="120.83333px"/><rect fill="#080808" x="1031.67px" y="23.04px" height="17.80px" width="0.00000px"/><rect fill="#080808" x="40.00px" y="23.04px" height="17.80px" width="995.83333px"/>
<text x="40.00px" y="36.80px" xml:space="preserve"><tspan xml:space="preserve"> </tspan><tspan xml:space="preserve"/><tspan xml:space="preserve" fill="#ffffff">msgvault [4fff2ee] - All Accounts                                                                                     </tspan><tspan xml:space="preserve"/></text><text x="40.00px" y="53.60px" xml:space="preserve"><tspan xml:space="preserve">  Time (Year) </tspan><tspan xml:space="preserve">                                                                       10000 msgs | 2.3 GB | 1037 attchs </tspan><tspan xml:space="preserve"/></text><text x="40.00px" y="70.40px" xml:space="preserve"><tspan xml:space="preserve">   Time                                                          Count↓         Size       Attchs</tspan></text><text x="40.00px" y="87.20px" xml:space="preserve"><tspan xml:space="preserve">────────────────────────────────────────────────────────────────────────────────────────────────────────────────────────</tspan></text><text x="40.00px" y="104.00px" xml:space="preserve"><tspan xml:space="preserve">▶  2022                                                            3.4K     836.0 MB      46.7 MB</tspan></text><text x="40.00px" y="120.80px" xml:space="preserve"><tspan xml:space="preserve">   2023                                                            3.3K     780.9 MB      49.3 MB</tspan></text><text x="40.00px" y="137.60px" xml:space="preserve"><tspan xml:space="preserve">   2024                                                            3.3K     775.8 MB      57.0 MB</tspan></text><text x="40.00px" y="154.40px" xml:space="preserve"/><text x="40.00px" y="171.20px" xml:space="preserve"/><text x="40.00px" y="188.00px" xml:space="preserve"/><text x="40.00px" y="204.80px" xml:space="preserve"/><text x="40.00px" y="221.60px" xml:space="preserve"/><text x="40.00px" y="238.40px" xml:space="preserve"/><text x="40.00px" y="255.20px" xml:space="preserve"/><text x="40.00px" y="272.00px" xml:space="preserve"/><text x="40.00px" y="288.80px" xml:space="preserve"/><text x="40.00px" y="305.60px" xml:space="preserve"/><text x="40.00px" y="322.40px" xml:space="preserve"/><text x="40.00px" y="339.20px" xml:space="preserve"/><text x="40.00px" y="356.00px" xml:space="preserve"/><text x="40.00px" y="372.80px" xml:space="preserve"/><text x="40.00px" y="389.60px" xml:space="preserve"/><text x="40.00px" y="406.40px" xml:space="preserve"/><text x="40.00px" y="423.20px" xml:space="preserve"/><text x="40.00px" y="440.00px" xml:space="preserve"/><text x="40.00px" y="456.80px" xml:space="preserve"/><text x="40.00px" y="473.60px" xml:space="preserve"/><text x="40.00px" y="490.40px" xml:space="preserve"/><text x="40.00px" y="507.20px" xml:space="preserve"/><text x="40.00px" y="524.00px" xml:space="preserve"/><text x="40.00px" y="540.80px" xml:space="preserve"/><text x="40.00px" y="557.60px" xml:space="preserve"/><text x="40.00px" y="574.40px" xml:space="preserve"/><text x="40.00px" y="591.20px" xml:space="preserve"/><text x="40.00px" y="608.00px" xml:space="preserve"/><text x="40.00px" y="624.80px" xml:space="preserve"/><text x="40.00px" y="641.60px" xml:space="preserve"/><text x="40.00px" y="658.40px" xml:space="preserve"/><text x="40.00px" y="675.20px" xml:space="preserve"><tspan xml:space="preserve">                                                                                                                       </tspan><tspan xml:space="preserve"/></text><text x="40.00px" y="692.00px" xml:space="preserve"><tspan xml:space="preserve"> ↑/k │ ↓/j │ Enter │ g group │ s sort │ A acct │ a msgs │ d del │ ? help                                           1/3 </tspan><tspan xml:space="preserve"/></text>
</g>
</svg>
